<svg width="1200" height="630" viewBox="0 0 1200 630" fill="none" xmlns="http://www.w3.org/2000/svg">
  <defs>
    <linearGradient id="bg" x1="0" y1="0" x2="1200" y2="630" gradientUnits="userSpaceOnUse">
      <stop stop-color="#0B1B2B"/>
      <stop offset="1" stop-color="#102A43"/>
    </linearGradient>
    <linearGradient id="chart" x1="0" y1="0" x2="0" y2="1">
      <stop offset="0" stop-color="#F5D90A" stop-opacity="0.45"/>
      <stop offset="1" stop-color="#F5D90A" stop-opacity="0"/>
    </linearGradient>
    <filter id="soft" x="-20%" y="-20%" width="140%" height="140%">
      <feGaussianBlur stdDeviation="14"/>
    </filter>
  </defs>

  <rect width="1200" height="630" fill="url(#bg)"/>
  <circle cx="1040" cy="120" r="140" fill="#1F6FEB" opacity="0.28" filter="url(#soft)"/>
  <circle cx="180" cy="560" r="170" fill="#F5D90A" opacity="0.18" filter="url(#soft)"/>

  <rect x="64" y="60" width="1072" height="510" rx="24" fill="#0E2236" stroke="#21415F" stroke-width="2"/>

  <text x="104" y="132" fill="#E6EDF3" font-family="Inter, Arial, sans-serif" font-size="52" font-weight="700">
    Ukraine War Area Dashboard
  </text>
  <text x="104" y="176" fill="#9FB3C8" font-family="Inter, Arial, sans-serif" font-size="26" font-weight="500">
    Territorial control trends and timeline insights
  </text>

  <rect x="104" y="220" width="992" height="300" rx="16" fill="#112B44" stroke="#2D4B68"/>
  <line x1="160" y1="472" x2="1040" y2="472" stroke="#44607A" stroke-width="2"/>
  <line x1="160" y1="472" x2="160" y2="260" stroke="#44607A" stroke-width="2"/>
  <path d="M160 454 L250 428 L340 438 L430 390 L520 350 L610 312 L700 296 L790 274 L880 248 L970 226" stroke="#F5D90A" stroke-width="6" stroke-linecap="round" stroke-linejoin="round"/>
  <path d="M160 454 L250 428 L340 438 L430 390 L520 350 L610 312 L700 296 L790 274 L880 248 L970 226 L970 472 L160 472 Z" fill="url(#chart)"/>
  <circle cx="430" cy="390" r="7" fill="#F5D90A"/>
  <circle cx="700" cy="296" r="7" fill="#F5D90A"/>
  <circle cx="970" cy="226" r="7" fill="#F5D90A"/>
  <text x="176" y="266" fill="#AFC2D4" font-family="Inter, Arial, sans-serif" font-size="18" font-weight="600">
    Area trend over time
  </text>
</svg>
